<svg width="800" height="800" viewBox="0 0 800 800" fill="none" xmlns="http://www.w3.org/2000/svg">
  <defs>
    <linearGradient id="bg" x1="110" y1="70" x2="690" y2="730" gradientUnits="userSpaceOnUse">
      <stop stop-color="#FFFFFF"/>
      <stop offset="0.52" stop-color="#FAFAFB"/>
      <stop offset="1" stop-color="#F4F1FF"/>
    </linearGradient>
    <radialGradient id="glowA" cx="0" cy="0" r="1" gradientUnits="userSpaceOnUse" gradientTransform="translate(240 180) rotate(40) scale(230 210)">
      <stop stop-color="#FCE7F3" stop-opacity="0.95"/>
      <stop offset="1" stop-color="#FCE7F3" stop-opacity="0"/>
    </radialGradient>
    <radialGradient id="glowB" cx="0" cy="0" r="1" gradientUnits="userSpaceOnUse" gradientTransform="translate(590 520) rotate(-35) scale(260 240)">
      <stop stop-color="#DDD6FE" stop-opacity="0.95"/>
      <stop offset="1" stop-color="#DDD6FE" stop-opacity="0"/>
    </radialGradient>
    <linearGradient id="hair" x1="250" y1="180" x2="560" y2="640" gradientUnits="userSpaceOnUse">
      <stop stop-color="#1F2937"/>
      <stop offset="1" stop-color="#111827"/>
    </linearGradient>
    <linearGradient id="skin" x1="330" y1="280" x2="470" y2="520" gradientUnits="userSpaceOnUse">
      <stop stop-color="#FFF6EE"/>
      <stop offset="1" stop-color="#F9E8D8"/>
    </linearGradient>
    <linearGradient id="shirt" x1="260" y1="500" x2="540" y2="700" gradientUnits="userSpaceOnUse">
      <stop stop-color="#FFFFFF"/>
      <stop offset="1" stop-color="#F3F4F6"/>
    </linearGradient>
    <linearGradient id="camera" x1="170" y1="210" x2="620" y2="590" gradientUnits="userSpaceOnUse">
      <stop stop-color="#FFFFFF" stop-opacity="0.95"/>
      <stop offset="1" stop-color="#E5E7EB" stop-opacity="0.95"/>
    </linearGradient>
  </defs>

  <rect width="800" height="800" rx="120" fill="url(#bg)"/>
  <circle cx="240" cy="180" r="230" fill="url(#glowA)"/>
  <circle cx="590" cy="520" r="250" fill="url(#glowB)"/>

  <g opacity="0.85">
    <rect x="108" y="120" width="584" height="560" rx="92" fill="white" fill-opacity="0.48"/>
    <rect x="132" y="144" width="536" height="512" rx="76" fill="white" fill-opacity="0.7"/>
  </g>

  <g transform="translate(0 14)">
    <path d="M280 274C304 204 363 162 431 162C514 162 577 218 592 296C611 397 592 510 546 578C525 609 491 627 453 627H347C302 627 262 601 242 561C205 487 200 375 229 308C237 289 248 279 280 274Z" fill="url(#hair)"/>
    <ellipse cx="408" cy="420" rx="122" ry="145" fill="url(#skin)"/>
    <path d="M282 282C296 224 339 184 393 171C347 216 328 266 322 312C320 330 307 347 288 351C263 356 246 331 252 307C257 287 268 282 282 282Z" fill="url(#hair)"/>
    <path d="M533 290C522 230 482 188 429 172C473 218 490 270 497 316C500 335 514 352 533 357C557 363 575 339 569 315C565 296 552 291 533 290Z" fill="url(#hair)"/>

    <ellipse cx="365" cy="398" rx="16" ry="9" fill="#1F2937"/>
    <ellipse cx="451" cy="398" rx="16" ry="9" fill="#1F2937"/>
    <path d="M347 370C353 362 361 358 370 358" stroke="#9CA3AF" stroke-width="6" stroke-linecap="round"/>
    <path d="M457 358C466 358 474 362 480 370" stroke="#9CA3AF" stroke-width="6" stroke-linecap="round"/>
    <path d="M395 430C403 438 414 438 422 430" stroke="#D97706" stroke-width="5" stroke-linecap="round"/>
    <path d="M351 468C379 490 436 490 463 468" stroke="#E5A5B6" stroke-width="6" stroke-linecap="round"/>

    <path d="M270 556C286 504 323 478 373 472H442C492 478 528 504 544 556L568 640H231L270 556Z" fill="url(#shirt)"/>
    <path d="M331 497C352 522 383 537 408 537C437 537 465 522 489 495" stroke="#D1D5DB" stroke-width="8" stroke-linecap="round"/>
    <path d="M348 537L362 640" stroke="#E5E7EB" stroke-width="14" stroke-linecap="round"/>
    <path d="M468 537L454 640" stroke="#E5E7EB" stroke-width="14" stroke-linecap="round"/>
  </g>

  <g transform="translate(88 112)">
    <rect x="0" y="0" width="146" height="84" rx="24" fill="url(#camera)"/>
    <rect x="28" y="22" width="68" height="40" rx="20" fill="#D8B4FE" fill-opacity="0.85"/>
    <circle cx="110" cy="42" r="14" fill="#111827" fill-opacity="0.84"/>
    <circle cx="110" cy="42" r="6" fill="#F8FAFC"/>
  </g>

  <g transform="translate(592 598)">
    <rect x="0" y="0" width="110" height="60" rx="20" fill="white" fill-opacity="0.8"/>
    <path d="M22 33L34 45L56 20" stroke="#10B981" stroke-width="6" stroke-linecap="round" stroke-linejoin="round"/>
    <text x="72" y="38" text-anchor="middle" fill="#7C3AED" font-family="Arial, sans-serif" font-size="22" font-weight="700">M</text>
  </g>
</svg>
